<svg width="18" height="18" viewBox="0 0 18 18" fill="none" xmlns="http://www.w3.org/2000/svg">
<rect width="18" height="18" fill="#E0E0E0"/>
<path d="M-1506 -761C-1506 -762.104 -1505.1 -763 -1504 -763H5252C5253.1 -763 5254 -762.105 5254 -761V2825C5254 2826.1 5253.1 2827 5252 2827H-1504C-1505.1 2827 -1506 2826.1 -1506 2825V-761Z" fill="#545252"/>
<path d="M-1504 -762H5252V-764H-1504V-762ZM5253 -761V2825H5255V-761H5253ZM5252 2826H-1504V2828H5252V2826ZM-1505 2825V-761H-1507V2825H-1505ZM-1504 2826C-1504.55 2826 -1505 2825.55 -1505 2825H-1507C-1507 2826.66 -1505.66 2828 -1504 2828V2826ZM5253 2825C5253 2825.55 5252.55 2826 5252 2826V2828C5253.66 2828 5255 2826.66 5255 2825H5253ZM5252 -762C5252.55 -762 5253 -761.552 5253 -761H5255C5255 -762.657 5253.66 -764 5252 -764V-762ZM-1504 -764C-1505.66 -764 -1507 -762.657 -1507 -761H-1505C-1505 -761.552 -1504.55 -762 -1504 -762V-764Z" fill="white" fill-opacity="0.1"/>
<rect width="1440" height="930" transform="translate(-1306 -563)" fill="#FAFBFA"/>
<g filter="url(#filter0_dd_2394_5459)">
<rect x="-1018" y="-449" width="1120" height="792" rx="6" fill="white" shape-rendering="crispEdges"/>
<rect x="21.0977" y="21.6816" width="24" height="24" rx="12" transform="rotate(-180 21.0977 21.6816)" fill="#EBEFEE"/>
<path d="M10.7227 13.3408L6.47266 9.09082L10.7227 4.84082" stroke="#0E1726" stroke-width="1.5" stroke-linecap="round" stroke-linejoin="round"/>
</g>
<defs>
<filter id="filter0_dd_2394_5459" x="-1022" y="-451" width="1128" height="802" filterUnits="userSpaceOnUse" color-interpolation-filters="sRGB">
<feFlood flood-opacity="0" result="BackgroundImageFix"/>
<feColorMatrix in="SourceAlpha" type="matrix" values="0 0 0 0 0 0 0 0 0 0 0 0 0 0 0 0 0 0 127 0" result="hardAlpha"/>
<feOffset dy="1"/>
<feGaussianBlur stdDeviation="1.5"/>
<feComposite in2="hardAlpha" operator="out"/>
<feColorMatrix type="matrix" values="0 0 0 0 0 0 0 0 0 0 0 0 0 0 0 0 0 0 0.1 0"/>
<feBlend mode="normal" in2="BackgroundImageFix" result="effect1_dropShadow_2394_5459"/>
<feColorMatrix in="SourceAlpha" type="matrix" values="0 0 0 0 0 0 0 0 0 0 0 0 0 0 0 0 0 0 127 0" result="hardAlpha"/>
<feOffset dy="4"/>
<feGaussianBlur stdDeviation="2"/>
<feComposite in2="hardAlpha" operator="out"/>
<feColorMatrix type="matrix" values="0 0 0 0 0 0 0 0 0 0 0 0 0 0 0 0 0 0 0.1 0"/>
<feBlend mode="normal" in2="effect1_dropShadow_2394_5459" result="effect2_dropShadow_2394_5459"/>
<feBlend mode="normal" in="SourceGraphic" in2="effect2_dropShadow_2394_5459" result="shape"/>
</filter>
</defs>
</svg>
