<svg width="16" height="16" viewBox="0 0 16 16" fill="none" xmlns="http://www.w3.org/2000/svg">
<g id="heroicons-outline/calendar-days">
<path id="Vector (Stroke)" fill-rule="evenodd" clip-rule="evenodd" d="M4.5 1.5C4.77614 1.5 5 1.72386 5 2V3H11V2C11 1.72386 11.2239 1.5 11.5 1.5C11.7761 1.5 12 1.72386 12 2V3H12.5C13.6046 3 14.5 3.89543 14.5 5V12.5C14.5 13.6046 13.6046 14.5 12.5 14.5H3.5C2.39543 14.5 1.5 13.6046 1.5 12.5V5C1.5 3.89543 2.39543 3 3.5 3H4V2C4 1.72386 4.22386 1.5 4.5 1.5ZM3.5 4C2.94772 4 2.5 4.44772 2.5 5V5.76756C2.79417 5.59739 3.13571 5.5 3.5 5.5H12.5C12.8643 5.5 13.2058 5.59739 13.5 5.76756V5C13.5 4.44772 13.0523 4 12.5 4H3.5ZM13.5 7.5C13.5 6.94772 13.0523 6.5 12.5 6.5H3.5C2.94772 6.5 2.5 6.94772 2.5 7.5V12.5C2.5 13.0523 2.94772 13.5 3.5 13.5H12.5C13.0523 13.5 13.5 13.0523 13.5 12.5V7.5ZM7.5 8.5C7.5 8.22386 7.72386 8 8 8H8.005C8.28114 8 8.505 8.22386 8.505 8.5V8.505C8.505 8.78114 8.28114 9.005 8.005 9.005H8C7.72386 9.005 7.5 8.78114 7.5 8.505V8.5ZM9 8.5C9 8.22386 9.22386 8 9.5 8H9.505C9.78114 8 10.005 8.22386 10.005 8.5V8.505C10.005 8.78114 9.78114 9.005 9.505 9.005H9.5C9.22386 9.005 9 8.78114 9 8.505V8.5ZM10.5 8.5C10.5 8.22386 10.7239 8 11 8H11.005C11.2811 8 11.505 8.22386 11.505 8.5V8.505C11.505 8.78114 11.2811 9.005 11.005 9.005H11C10.7239 9.005 10.5 8.78114 10.5 8.505V8.5ZM4.5 10C4.5 9.72386 4.72386 9.5 5 9.5H5.005C5.28114 9.5 5.505 9.72386 5.505 10V10.005C5.505 10.2811 5.28114 10.505 5.005 10.505H5C4.72386 10.505 4.5 10.2811 4.5 10.005V10ZM6 10C6 9.72386 6.22386 9.5 6.5 9.5H6.505C6.78114 9.5 7.005 9.72386 7.005 10V10.005C7.005 10.2811 6.78114 10.505 6.505 10.505H6.5C6.22386 10.505 6 10.2811 6 10.005V10ZM7.5 10C7.5 9.72386 7.72386 9.5 8 9.5H8.005C8.28114 9.5 8.505 9.72386 8.505 10V10.005C8.505 10.2811 8.28114 10.505 8.005 10.505H8C7.72386 10.505 7.5 10.2811 7.5 10.005V10ZM9 10C9 9.72386 9.22386 9.5 9.5 9.5H9.505C9.78114 9.5 10.005 9.72386 10.005 10V10.005C10.005 10.2811 9.78114 10.505 9.505 10.505H9.5C9.22386 10.505 9 10.2811 9 10.005V10ZM10.5 10C10.5 9.72386 10.7239 9.5 11 9.5H11.005C11.2811 9.5 11.505 9.72386 11.505 10V10.005C11.505 10.2811 11.2811 10.505 11.005 10.505H11C10.7239 10.505 10.5 10.2811 10.5 10.005V10ZM4.5 11.5C4.5 11.2239 4.72386 11 5 11H5.005C5.28114 11 5.505 11.2239 5.505 11.5V11.505C5.505 11.7811 5.28114 12.005 5.005 12.005H5C4.72386 12.005 4.5 11.7811 4.5 11.505V11.5ZM6 11.5C6 11.2239 6.22386 11 6.5 11H6.505C6.78114 11 7.005 11.2239 7.005 11.5V11.505C7.005 11.7811 6.78114 12.005 6.505 12.005H6.5C6.22386 12.005 6 11.7811 6 11.505V11.5ZM7.5 11.5C7.5 11.2239 7.72386 11 8 11H8.005C8.28114 11 8.505 11.2239 8.505 11.5V11.505C8.505 11.7811 8.28114 12.005 8.005 12.005H8C7.72386 12.005 7.5 11.7811 7.5 11.505V11.5ZM9 11.5C9 11.2239 9.22386 11 9.5 11H9.505C9.78114 11 10.005 11.2239 10.005 11.5V11.505C10.005 11.7811 9.78114 12.005 9.505 12.005H9.5C9.22386 12.005 9 11.7811 9 11.505V11.5Z" fill="#0F172A"/>
</g>
</svg>
