<svg width="30" height="30" viewBox="0 0 30 30" fill="none" xmlns="http://www.w3.org/2000/svg">
<g id="Cloud upload">
<path id="Icon" d="M8.75 21.25C9.44036 21.25 10 20.6904 10 20C10 19.3096 9.44036 18.75 8.75 18.75V21.25ZM19.8752 7.50122L18.6502 7.74964C18.7702 8.3414 19.296 8.7628 19.8997 8.75098L19.8752 7.50122ZM7.65088 10.1212L7.92447 11.3409C8.59788 11.1898 9.02145 10.5216 8.8707 9.84815L7.65088 10.1212ZM21.0013 18.65C20.3248 18.7873 19.8876 19.4471 20.025 20.1236C20.1623 20.8002 20.8221 21.2373 21.4987 21.1L21.0013 18.65ZM17.8661 17.1339L18.75 18.0178L20.5178 16.25L19.6339 15.3661L17.8661 17.1339ZM15 12.5L15.8839 11.6161C15.3957 11.128 14.6043 11.128 14.1161 11.6161L15 12.5ZM10.3661 15.3661L9.48223 16.25L11.25 18.0178L12.1339 17.1339L10.3661 15.3661ZM13.75 27.5V28.75H16.25V27.5H13.75ZM8.75 18.75C6.67893 18.75 5 17.0711 5 15H2.5C2.5 18.4518 5.29822 21.25 8.75 21.25V18.75ZM20 8.75C22.7614 8.75 25 10.9886 25 13.75H27.5C27.5 9.60786 24.1421 6.25 20 6.25V8.75ZM19.8997 8.75098C19.9331 8.75033 19.9665 8.75 20 8.75V6.25C19.9501 6.25 19.9004 6.25049 19.8508 6.25146L19.8997 8.75098ZM13.75 3.75C16.1679 3.75 18.1874 5.46744 18.6502 7.74964L21.1003 7.2528C20.4058 3.82818 17.3804 1.25 13.75 1.25V3.75ZM8.75 8.75C8.75 5.98858 10.9886 3.75 13.75 3.75V1.25C9.60786 1.25 6.25 4.60786 6.25 8.75H8.75ZM8.8707 9.84815C8.79185 9.49592 8.75 9.12859 8.75 8.75H6.25C6.25 9.31351 6.31237 9.86395 6.43107 10.3942L8.8707 9.84815ZM5 15C5 13.2137 6.25019 11.7164 7.92447 11.3409L7.37729 8.9015C4.58622 9.52757 2.5 12.0187 2.5 15H5ZM25 13.75C25 16.1675 23.2831 18.1868 21.0013 18.65L21.4987 21.1C24.9226 20.405 27.5 17.3799 27.5 13.75H25ZM19.6339 15.3661L15.8839 11.6161L14.1161 13.3839L17.8661 17.1339L19.6339 15.3661ZM14.1161 11.6161L10.3661 15.3661L12.1339 17.1339L15.8839 13.3839L14.1161 11.6161ZM13.75 12.5L13.75 27.5H16.25L16.25 12.5H13.75Z" fill="#71717A"/>
</g>
</svg>
