<svg width="16" height="17" viewBox="0 0 16 17" fill="none" xmlns="http://www.w3.org/2000/svg">
<path fill-rule="evenodd" clip-rule="evenodd" d="M7.99967 2.33301C4.59392 2.33301 1.83301 5.09392 1.83301 8.49967C1.83301 11.9054 4.59392 14.6663 7.99967 14.6663C11.4054 14.6663 14.1663 11.9054 14.1663 8.49967C14.1663 5.09392 11.4054 2.33301 7.99967 2.33301ZM0.833008 8.49967C0.833008 4.54163 4.04163 1.33301 7.99967 1.33301C11.9577 1.33301 15.1663 4.54163 15.1663 8.49967C15.1663 12.4577 11.9577 15.6663 7.99967 15.6663C4.04163 15.6663 0.833008 12.4577 0.833008 8.49967Z" fill="#E59148"/>
<mask id="path-2-outside-1_4032_18458" maskUnits="userSpaceOnUse" x="2.33301" y="2.83301" width="12" height="11" fill="black">
<rect fill="white" x="2.33301" y="2.83301" width="12" height="11"/>
<path d="M8.367 7.30142C8.367 7.29156 8.34703 6.23779 8.367 5.27137C8.38543 4.4261 9.2409 4.10068 9.74619 4.03587L9.95814 3.83301L11.4556 5.95603L10.7123 6.36881L9.9351 5.77712C9.68015 5.72359 9.5066 5.61229 9.41752 5.44465C9.27315 5.17135 9.43136 4.8755 9.44979 4.8431L9.76001 4.9882C9.73237 5.03892 9.67248 5.19529 9.73238 5.30518C9.77538 5.38548 9.88136 5.44042 10.0472 5.47001L10.0902 5.47705L10.7445 5.97435L10.9687 5.84897L9.90285 4.33735L9.84603 4.34298C9.80149 4.34721 8.73407 4.45569 8.71564 5.27419C8.69568 6.23497 8.71564 7.2817 8.71564 7.29297L8.367 7.2986V7.30142Z"/>
<path d="M11.8509 9.58239L11.5652 9.39925L12.0137 8.81038L11.622 8.4117C10.378 9.21188 9.51176 8.43283 9.50408 8.42579L6.74415 5.89562H3.69241L3.33301 5.57583H6.88851L9.7452 8.19616C9.77131 8.21729 10.4701 8.84137 11.5452 8.06514L11.6819 7.96652L12.4468 8.7977L11.8493 9.58098L11.8509 9.58239Z"/>
<path d="M12.7663 9.57837L12.4729 9.4065L12.9076 8.78381L11.7926 7.43702C11.5299 7.5934 11.149 7.87938 10.5715 7.95123H10.5669C10.5669 7.95123 10.7021 7.41167 10.3197 6.89183L10.5685 6.75376C10.8526 7.13977 10.8449 7.32291 10.8879 7.54691C11.1245 7.44548 11.49 7.2412 11.7357 7.08905L11.8724 7.00453L13.333 8.76832L12.7663 9.57837Z"/>
<path d="M4.53252 9.02592L4.03183 9.03437L4.94106 8.0919H7.05286L7.4491 7.66786L7.08357 7.32975L5.26512 7.33116L4.90726 7.01278L7.26633 7.01982L7.93136 7.62982L7.21411 8.4117H5.0977L4.53252 9.02592Z"/>
<path d="M6.82745 6.62119H4.58049L4.22572 6.3014H6.48803L6.82745 6.62119Z"/>
<path d="M6.84656 13.1663L5.72539 11.9618L6.82659 10.7024H7.19827L6.18307 11.9689L7.26584 13.1663H6.84656Z"/>
<path d="M7.90561 13.1662L6.82744 11.98L8.01619 10.7614L7.72591 9.14694L7.00099 8.35521L7.26823 8.14952L8.05459 9.00888L8.38788 10.8685L7.30203 11.9913L8.33259 13.1662H7.90561Z"/>
<path d="M9.13359 9.80925H8.46704L8.39025 9.49087H8.98155L10.0229 8.44414L10.2809 8.65968L9.13359 9.80925Z"/>
<path d="M6.9366 11.0083C6.15638 11.0083 5.43299 10.356 5.43299 9.55586C5.43299 8.75567 6.14408 8.09355 7.01645 8.09355V8.41334C6.33453 8.41334 5.7801 8.92614 5.7801 9.55586C5.7801 10.1856 6.33453 10.704 7.01645 10.704L6.93506 11.0097L6.9366 11.0083Z"/>
<path d="M7.17933 13.1662H6.63256C6.63256 13.1662 6.75389 13.0958 6.63256 12.9366C6.52351 12.7943 7.17933 13.1662 7.17933 13.1662Z"/>
<path d="M8.25035 13.1662H7.70359C7.70359 13.1662 7.82493 13.0958 7.70359 12.9366C7.59455 12.7943 8.25035 13.1662 8.25035 13.1662Z"/>
<path d="M11.7475 9.76411L11.4848 9.26681C11.4848 9.26681 11.5954 9.35133 11.7229 9.19637C11.792 9.11184 11.9471 9.44995 11.8488 9.58378C11.7383 9.73593 11.7475 9.76411 11.7475 9.76411Z"/>
<path d="M12.6634 9.76399L12.4008 9.26668C12.4008 9.26668 12.5022 9.35544 12.6681 9.12722C12.7326 9.03846 12.8631 9.44983 12.7648 9.58366C12.6542 9.73581 12.6634 9.76399 12.6634 9.76399Z"/>
</mask>
<path d="M8.367 7.30142C8.367 7.29156 8.34703 6.23779 8.367 5.27137C8.38543 4.4261 9.2409 4.10068 9.74619 4.03587L9.95814 3.83301L11.4556 5.95603L10.7123 6.36881L9.9351 5.77712C9.68015 5.72359 9.5066 5.61229 9.41752 5.44465C9.27315 5.17135 9.43136 4.8755 9.44979 4.8431L9.76001 4.9882C9.73237 5.03892 9.67248 5.19529 9.73238 5.30518C9.77538 5.38548 9.88136 5.44042 10.0472 5.47001L10.0902 5.47705L10.7445 5.97435L10.9687 5.84897L9.90285 4.33735L9.84603 4.34298C9.80149 4.34721 8.73407 4.45569 8.71564 5.27419C8.69568 6.23497 8.71564 7.2817 8.71564 7.29297L8.367 7.2986V7.30142Z" fill="#E59148"/>
<path d="M11.8509 9.58239L11.5652 9.39925L12.0137 8.81038L11.622 8.4117C10.378 9.21188 9.51176 8.43283 9.50408 8.42579L6.74415 5.89562H3.69241L3.33301 5.57583H6.88851L9.7452 8.19616C9.77131 8.21729 10.4701 8.84137 11.5452 8.06514L11.6819 7.96652L12.4468 8.7977L11.8493 9.58098L11.8509 9.58239Z" fill="#E59148"/>
<path d="M12.7663 9.57837L12.4729 9.4065L12.9076 8.78381L11.7926 7.43702C11.5299 7.5934 11.149 7.87938 10.5715 7.95123H10.5669C10.5669 7.95123 10.7021 7.41167 10.3197 6.89183L10.5685 6.75376C10.8526 7.13977 10.8449 7.32291 10.8879 7.54691C11.1245 7.44548 11.49 7.2412 11.7357 7.08905L11.8724 7.00453L13.333 8.76832L12.7663 9.57837Z" fill="#E59148"/>
<path d="M4.53252 9.02592L4.03183 9.03437L4.94106 8.0919H7.05286L7.4491 7.66786L7.08357 7.32975L5.26512 7.33116L4.90726 7.01278L7.26633 7.01982L7.93136 7.62982L7.21411 8.4117H5.0977L4.53252 9.02592Z" fill="#E59148"/>
<path d="M6.82745 6.62119H4.58049L4.22572 6.3014H6.48803L6.82745 6.62119Z" fill="#E59148"/>
<path d="M6.84656 13.1663L5.72539 11.9618L6.82659 10.7024H7.19827L6.18307 11.9689L7.26584 13.1663H6.84656Z" fill="#E59148"/>
<path d="M7.90561 13.1662L6.82744 11.98L8.01619 10.7614L7.72591 9.14694L7.00099 8.35521L7.26823 8.14952L8.05459 9.00888L8.38788 10.8685L7.30203 11.9913L8.33259 13.1662H7.90561Z" fill="#E59148"/>
<path d="M9.13359 9.80925H8.46704L8.39025 9.49087H8.98155L10.0229 8.44414L10.2809 8.65968L9.13359 9.80925Z" fill="#E59148"/>
<path d="M6.9366 11.0083C6.15638 11.0083 5.43299 10.356 5.43299 9.55586C5.43299 8.75567 6.14408 8.09355 7.01645 8.09355V8.41334C6.33453 8.41334 5.7801 8.92614 5.7801 9.55586C5.7801 10.1856 6.33453 10.704 7.01645 10.704L6.93506 11.0097L6.9366 11.0083Z" fill="#E59148"/>
<path d="M7.17933 13.1662H6.63256C6.63256 13.1662 6.75389 13.0958 6.63256 12.9366C6.52351 12.7943 7.17933 13.1662 7.17933 13.1662Z" fill="#E59148"/>
<path d="M8.25035 13.1662H7.70359C7.70359 13.1662 7.82493 13.0958 7.70359 12.9366C7.59455 12.7943 8.25035 13.1662 8.25035 13.1662Z" fill="#E59148"/>
<path d="M11.7475 9.76411L11.4848 9.26681C11.4848 9.26681 11.5954 9.35133 11.7229 9.19637C11.792 9.11184 11.9471 9.44995 11.8488 9.58378C11.7383 9.73593 11.7475 9.76411 11.7475 9.76411Z" fill="#E59148"/>
<path d="M12.6634 9.76399L12.4008 9.26668C12.4008 9.26668 12.5022 9.35544 12.6681 9.12722C12.7326 9.03846 12.8631 9.44983 12.7648 9.58366C12.6542 9.73581 12.6634 9.76399 12.6634 9.76399Z" fill="#E59148"/>
<path d="M8.367 7.30142C8.367 7.29156 8.34703 6.23779 8.367 5.27137C8.38543 4.4261 9.2409 4.10068 9.74619 4.03587L9.95814 3.83301L11.4556 5.95603L10.7123 6.36881L9.9351 5.77712C9.68015 5.72359 9.5066 5.61229 9.41752 5.44465C9.27315 5.17135 9.43136 4.8755 9.44979 4.8431L9.76001 4.9882C9.73237 5.03892 9.67248 5.19529 9.73238 5.30518C9.77538 5.38548 9.88136 5.44042 10.0472 5.47001L10.0902 5.47705L10.7445 5.97435L10.9687 5.84897L9.90285 4.33735L9.84603 4.34298C9.80149 4.34721 8.73407 4.45569 8.71564 5.27419C8.69568 6.23497 8.71564 7.2817 8.71564 7.29297L8.367 7.2986V7.30142Z" stroke="#E59148" stroke-width="0.2" mask="url(#path-2-outside-1_4032_18458)"/>
<path d="M11.8509 9.58239L11.5652 9.39925L12.0137 8.81038L11.622 8.4117C10.378 9.21188 9.51176 8.43283 9.50408 8.42579L6.74415 5.89562H3.69241L3.33301 5.57583H6.88851L9.7452 8.19616C9.77131 8.21729 10.4701 8.84137 11.5452 8.06514L11.6819 7.96652L12.4468 8.7977L11.8493 9.58098L11.8509 9.58239Z" stroke="#E59148" stroke-width="0.2" mask="url(#path-2-outside-1_4032_18458)"/>
<path d="M12.7663 9.57837L12.4729 9.4065L12.9076 8.78381L11.7926 7.43702C11.5299 7.5934 11.149 7.87938 10.5715 7.95123H10.5669C10.5669 7.95123 10.7021 7.41167 10.3197 6.89183L10.5685 6.75376C10.8526 7.13977 10.8449 7.32291 10.8879 7.54691C11.1245 7.44548 11.49 7.2412 11.7357 7.08905L11.8724 7.00453L13.333 8.76832L12.7663 9.57837Z" stroke="#E59148" stroke-width="0.2" mask="url(#path-2-outside-1_4032_18458)"/>
<path d="M4.53252 9.02592L4.03183 9.03437L4.94106 8.0919H7.05286L7.4491 7.66786L7.08357 7.32975L5.26512 7.33116L4.90726 7.01278L7.26633 7.01982L7.93136 7.62982L7.21411 8.4117H5.0977L4.53252 9.02592Z" stroke="#E59148" stroke-width="0.2" mask="url(#path-2-outside-1_4032_18458)"/>
<path d="M6.82745 6.62119H4.58049L4.22572 6.3014H6.48803L6.82745 6.62119Z" stroke="#E59148" stroke-width="0.2" mask="url(#path-2-outside-1_4032_18458)"/>
<path d="M6.84656 13.1663L5.72539 11.9618L6.82659 10.7024H7.19827L6.18307 11.9689L7.26584 13.1663H6.84656Z" stroke="#E59148" stroke-width="0.2" mask="url(#path-2-outside-1_4032_18458)"/>
<path d="M7.90561 13.1662L6.82744 11.98L8.01619 10.7614L7.72591 9.14694L7.00099 8.35521L7.26823 8.14952L8.05459 9.00888L8.38788 10.8685L7.30203 11.9913L8.33259 13.1662H7.90561Z" stroke="#E59148" stroke-width="0.2" mask="url(#path-2-outside-1_4032_18458)"/>
<path d="M9.13359 9.80925H8.46704L8.39025 9.49087H8.98155L10.0229 8.44414L10.2809 8.65968L9.13359 9.80925Z" stroke="#E59148" stroke-width="0.2" mask="url(#path-2-outside-1_4032_18458)"/>
<path d="M6.9366 11.0083C6.15638 11.0083 5.43299 10.356 5.43299 9.55586C5.43299 8.75567 6.14408 8.09355 7.01645 8.09355V8.41334C6.33453 8.41334 5.7801 8.92614 5.7801 9.55586C5.7801 10.1856 6.33453 10.704 7.01645 10.704L6.93506 11.0097L6.9366 11.0083Z" stroke="#E59148" stroke-width="0.2" mask="url(#path-2-outside-1_4032_18458)"/>
<path d="M7.17933 13.1662H6.63256C6.63256 13.1662 6.75389 13.0958 6.63256 12.9366C6.52351 12.7943 7.17933 13.1662 7.17933 13.1662Z" stroke="#E59148" stroke-width="0.2" mask="url(#path-2-outside-1_4032_18458)"/>
<path d="M8.25035 13.1662H7.70359C7.70359 13.1662 7.82493 13.0958 7.70359 12.9366C7.59455 12.7943 8.25035 13.1662 8.25035 13.1662Z" stroke="#E59148" stroke-width="0.2" mask="url(#path-2-outside-1_4032_18458)"/>
<path d="M11.7475 9.76411L11.4848 9.26681C11.4848 9.26681 11.5954 9.35133 11.7229 9.19637C11.792 9.11184 11.9471 9.44995 11.8488 9.58378C11.7383 9.73593 11.7475 9.76411 11.7475 9.76411Z" stroke="#E59148" stroke-width="0.2" mask="url(#path-2-outside-1_4032_18458)"/>
<path d="M12.6634 9.76399L12.4008 9.26668C12.4008 9.26668 12.5022 9.35544 12.6681 9.12722C12.7326 9.03846 12.8631 9.44983 12.7648 9.58366C12.6542 9.73581 12.6634 9.76399 12.6634 9.76399Z" stroke="#E59148" stroke-width="0.2" mask="url(#path-2-outside-1_4032_18458)"/>
</svg>
