<svg width="16" height="17" viewBox="0 0 16 17" fill="none" xmlns="http://www.w3.org/2000/svg">
<g id="heroicons-outline/square-2-stack">
<path id="Vector (Stroke)" fill-rule="evenodd" clip-rule="evenodd" d="M2 4.34082C2 3.23625 2.89543 2.34082 4 2.34082H9.5C10.6046 2.34082 11.5 3.23625 11.5 4.34082V5.34082H12C13.1046 5.34082 14 6.23625 14 7.34082V12.3408C14 13.4454 13.1046 14.3408 12 14.3408H7C5.89543 14.3408 5 13.4454 5 12.3408V11.8408H4C2.89543 11.8408 2 10.9454 2 9.84082V4.34082ZM5 10.8408V7.34082C5 6.23625 5.89543 5.34082 7 5.34082H10.5V4.34082C10.5 3.78854 10.0523 3.34082 9.5 3.34082H4C3.44772 3.34082 3 3.78854 3 4.34082V9.84082C3 10.3931 3.44772 10.8408 4 10.8408H5ZM7 6.34082C6.44772 6.34082 6 6.78854 6 7.34082V12.3408C6 12.8931 6.44772 13.3408 7 13.3408H12C12.5523 13.3408 13 12.8931 13 12.3408V7.34082C13 6.78854 12.5523 6.34082 12 6.34082H7Z" fill="#0F172A"/>
</g>
</svg>
