<svg width="13" height="13" viewBox="0 0 13 13" fill="none" xmlns="http://www.w3.org/2000/svg">
<path id="Vector (Stroke)" fill-rule="evenodd" clip-rule="evenodd" d="M0.454102 2.5C0.454102 1.39543 1.34953 0.5 2.4541 0.5H7.9541C9.05867 0.5 9.9541 1.39543 9.9541 2.5V3.5H10.4541C11.5587 3.5 12.4541 4.39543 12.4541 5.5V10.5C12.4541 11.6046 11.5587 12.5 10.4541 12.5H5.4541C4.34953 12.5 3.4541 11.6046 3.4541 10.5V10H2.4541C1.34953 10 0.454102 9.10457 0.454102 8V2.5ZM3.4541 9V5.5C3.4541 4.39543 4.34953 3.5 5.4541 3.5H8.9541V2.5C8.9541 1.94772 8.50639 1.5 7.9541 1.5H2.4541C1.90182 1.5 1.4541 1.94772 1.4541 2.5V8C1.4541 8.55229 1.90182 9 2.4541 9H3.4541ZM5.4541 4.5C4.90182 4.5 4.4541 4.94772 4.4541 5.5V10.5C4.4541 11.0523 4.90182 11.5 5.4541 11.5H10.4541C11.0064 11.5 11.4541 11.0523 11.4541 10.5V5.5C11.4541 4.94772 11.0064 4.5 10.4541 4.5H5.4541Z" fill="black" stroke="black" stroke-width="0.5" stroke-linecap="round" stroke-linejoin="round"/>
</svg>
