<svg width="24" height="24" viewBox="0 0 24 24" fill="none" xmlns="http://www.w3.org/2000/svg">
<g id="heroicons-outline/document-arrow-down">
<path id="Vector (Stroke)" fill-rule="evenodd" clip-rule="evenodd" d="M5.625 3C5.41789 3 5.25 3.16789 5.25 3.375V20.625C5.25 20.8321 5.41789 21 5.625 21H18.375C18.5821 21 18.75 20.8321 18.75 20.625V11.625C18.75 10.1753 17.5747 9 16.125 9H14.625C13.5895 9 12.75 8.16053 12.75 7.125V5.625C12.75 4.17525 11.5747 3 10.125 3H5.625ZM5.625 1.5C4.58947 1.5 3.75 2.33947 3.75 3.375V20.625C3.75 21.6605 4.58947 22.5 5.625 22.5H18.375C19.4105 22.5 20.25 21.6605 20.25 20.625V11.25C20.25 5.86522 15.8848 1.5 10.5 1.5H5.625ZM13.757 3.66785C14.0715 4.25019 14.25 4.91675 14.25 5.625V7.125C14.25 7.33211 14.4179 7.5 14.625 7.5H16.125C16.8332 7.5 17.4998 7.6785 18.0822 7.99296C17.2488 6.05549 15.6945 4.50123 13.757 3.66785ZM12 10.5C12.4142 10.5 12.75 10.8358 12.75 11.25L12.75 15.4393L14.4697 13.7197C14.7626 13.4268 15.2374 13.4268 15.5303 13.7197C15.8232 14.0126 15.8232 14.4874 15.5303 14.7803L12.5303 17.7803C12.3897 17.921 12.1989 18 12 18C11.8011 18 11.6103 17.921 11.4697 17.7803L8.46967 14.7803C8.17678 14.4874 8.17678 14.0126 8.46967 13.7197C8.76256 13.4268 9.23744 13.4268 9.53033 13.7197L11.25 15.4393L11.25 11.25C11.25 10.8358 11.5858 10.5 12 10.5Z" fill="#015640"/>
</g>
</svg>
