<svg width="19" height="18" viewBox="0 0 19 18" fill="none" xmlns="http://www.w3.org/2000/svg">
<path d="M11.0289 15.0667C10.5107 15.1706 9.98441 15.2226 9.45703 15.2222C5.70308 15.2222 2.52588 12.6062 1.45703 9C1.7448 8.02942 2.18803 7.11863 2.76731 6.30756M11.2343 10.8844L7.67814 7.11467C8.14982 6.61453 8.78956 6.33355 9.45661 6.33355C10.1237 6.33355 10.7634 6.61453 11.2351 7.11467C11.7068 7.61481 11.9718 8.29314 11.9718 9.00044C11.9718 9.70775 11.7068 10.3861 11.2351 10.8862L13.994 13.8107M7.67981 7.11556L4.92177 4.19111M4.92177 4.19111L1.91223 1M4.92177 4.19111C6.27343 3.26628 7.8484 2.77547 9.45703 2.77778C13.211 2.77778 16.3882 5.39378 17.457 9C16.8669 10.9826 15.6416 12.6841 13.9931 13.8098L17.0018 17" stroke="black" stroke-width="2" stroke-linecap="round" stroke-linejoin="round"/>
</svg>
