<svg width="17" height="16" viewBox="0 0 17 16" fill="none" xmlns="http://www.w3.org/2000/svg">
<g id="heroicons-outline/eye">
<path id="Vector (Stroke)" fill-rule="evenodd" clip-rule="evenodd" d="M8.45494 3.5C5.58331 3.5 3.14539 5.36249 2.28574 7.94677C2.27388 7.98243 2.27389 8.02118 2.28578 8.05683C3.14649 10.6392 5.58348 12.5 8.45377 12.5C11.3254 12.5 13.7633 10.6375 14.623 8.05323C14.6348 8.01757 14.6348 7.97882 14.6229 7.94317C13.7622 5.36076 11.3252 3.5 8.45494 3.5ZM1.33686 7.63113C2.32837 4.65047 5.13986 2.5 8.45494 2.5C11.7685 2.5 14.5789 4.64848 15.5716 7.62697C15.6518 7.86768 15.6519 8.12812 15.5718 8.36887C14.5803 11.3495 11.7688 13.5 8.45377 13.5C5.14024 13.5 2.32981 11.3515 1.33708 8.37303C1.25685 8.13233 1.25678 7.87189 1.33686 7.63113ZM8.45439 6.5C7.62597 6.5 6.95439 7.17157 6.95439 8C6.95439 8.82843 7.62597 9.5 8.45439 9.5C9.28282 9.5 9.9544 8.82843 9.9544 8C9.9544 7.17157 9.28282 6.5 8.45439 6.5ZM5.95439 8C5.95439 6.61929 7.07368 5.5 8.45439 5.5C9.83511 5.5 10.9544 6.61929 10.9544 8C10.9544 9.38071 9.83511 10.5 8.45439 10.5C7.07368 10.5 5.95439 9.38071 5.95439 8Z" fill="#0F172A" stroke="black" stroke-width="0.5" stroke-linecap="round" stroke-linejoin="round"/>
</g>
</svg>
