<svg width="15" height="16" viewBox="0 0 15 16" fill="none" xmlns="http://www.w3.org/2000/svg">
<path id="Icon (Stroke)" fill-rule="evenodd" clip-rule="evenodd" d="M7.11747 6.25535e-07H8.33717C8.72055 -1.23791e-05 9.05128 -2.36495e-05 9.3237 0.0222336C9.61122 0.0457253 9.8972 0.0975914 10.1724 0.237805C10.5829 0.446984 10.9167 0.780759 11.1259 1.19129C11.2661 1.46648 11.318 1.75246 11.3414 2.03998C11.3614 2.28418 11.3635 2.57525 11.3637 2.90909H14.2728C14.6744 2.90909 15 3.2347 15 3.63636C15 4.03803 14.6744 4.36364 14.2728 4.36364H13.5455V11.8119C13.5455 12.3973 13.5455 12.8805 13.5134 13.2741C13.48 13.6829 13.4083 14.0586 13.2284 14.4116C12.9495 14.959 12.5045 15.404 11.9571 15.6829C11.6041 15.8628 11.2284 15.9345 10.8196 15.9679C10.426 16 9.94279 16 9.35737 16H6.09726C5.51184 16 5.02867 16 4.63508 15.9679C4.22628 15.9345 3.8505 15.8628 3.49753 15.6829C2.95015 15.404 2.50511 14.959 2.22621 14.4116C2.04636 14.0586 1.97468 13.6829 1.94128 13.2741C1.90912 12.8805 1.90913 12.3973 1.90913 11.8119L1.90914 4.36364H1.18186C0.780201 4.36364 0.45459 4.03803 0.45459 3.63636C0.45459 3.2347 0.780201 2.90909 1.18186 2.90909H4.09097C4.09118 2.57525 4.09323 2.28418 4.11319 2.03998C4.13668 1.75246 4.18854 1.46648 4.32876 1.19129C4.53794 0.780759 4.87171 0.446984 5.28225 0.237805C5.55743 0.0975914 5.84341 0.0457253 6.13093 0.0222337C6.40335 -2.36495e-05 6.73409 -1.23791e-05 7.11747 6.25535e-07ZM3.36368 4.36364V11.7818C3.36368 12.4048 3.36425 12.8283 3.39099 13.1556C3.41704 13.4745 3.46426 13.6375 3.52222 13.7513C3.66167 14.025 3.88419 14.2475 4.15788 14.3869C4.27162 14.4449 4.43468 14.4921 4.75353 14.5181C5.08086 14.5449 5.50435 14.5455 6.12732 14.5455H9.32732C9.95028 14.5455 10.3738 14.5449 10.7011 14.5181C11.02 14.4921 11.183 14.4449 11.2968 14.3869C11.5704 14.2475 11.793 14.025 11.9324 13.7513C11.9904 13.6375 12.0376 13.4745 12.0636 13.1556C12.0904 12.8283 12.091 12.4048 12.091 11.7818V4.36364H3.36368ZM9.90908 2.90909H5.54555C5.54587 2.57083 5.5481 2.33962 5.5629 2.15843C5.57904 1.96085 5.60644 1.8876 5.62477 1.85164C5.69449 1.7148 5.80575 1.60354 5.9426 1.53381C5.97856 1.51549 6.05181 1.48809 6.24938 1.47195C6.45544 1.45511 6.72619 1.45455 7.1455 1.45455H8.30913C8.72845 1.45455 8.99919 1.45511 9.20525 1.47195C9.40283 1.48809 9.47608 1.51549 9.51204 1.53381C9.64888 1.60354 9.76014 1.7148 9.82987 1.85164C9.84819 1.8876 9.87559 1.96085 9.89173 2.15843C9.90654 2.33962 9.90876 2.57083 9.90908 2.90909ZM6.27277 6.90909C6.67443 6.90909 7.00004 7.2347 7.00004 7.63636V11.2727C7.00004 11.6744 6.67443 12 6.27277 12C5.87111 12 5.5455 11.6744 5.5455 11.2727V7.63636C5.5455 7.2347 5.87111 6.90909 6.27277 6.90909ZM9.18186 6.90909C9.58352 6.90909 9.90913 7.2347 9.90913 7.63636V11.2727C9.90913 11.6744 9.58352 12 9.18186 12C8.7802 12 8.45459 11.6744 8.45459 11.2727V7.63636C8.45459 7.2347 8.7802 6.90909 9.18186 6.90909Z" fill="black"/>
</svg>
