<svg width="137" height="34" viewBox="0 0 137 34" fill="none" xmlns="http://www.w3.org/2000/svg">
<g id="logo">
<path d="M18.0964 15.598C18.0964 15.5737 18.0487 12.9786 18.0964 10.5986C18.1404 8.51695 20.1836 7.71552 21.3905 7.55593L21.8967 7.05634L25.4732 12.2847L23.6978 13.3012L21.8417 11.8441C21.2327 11.7123 20.8182 11.4382 20.6055 11.0253C20.2607 10.3523 20.6385 9.62368 20.6825 9.54388L21.4235 9.90123C21.3575 10.0261 21.2144 10.4112 21.3575 10.6818C21.4602 10.8796 21.7133 11.0149 22.1095 11.0878L22.2122 11.1051L23.7748 12.3298L24.3104 12.021L21.7646 8.29837L21.6289 8.31225C21.5225 8.32266 18.9731 8.5898 18.9291 10.6055C18.8814 12.9716 18.9291 15.5494 18.9291 15.5772L18.0964 15.591V15.598Z" fill="#015640"/>
<path d="M26.4173 21.2153L25.735 20.7643L26.8061 19.3141L25.8707 18.3322C22.8994 20.3029 20.8305 18.3843 20.8122 18.3669L14.2204 12.1359H6.93159L6.07319 11.3484H14.5652L21.3881 17.8014C21.4505 17.8535 23.1195 19.3904 25.6873 17.4788L26.0137 17.2359L27.8406 19.2829L26.4136 21.2118L26.4173 21.2153Z" fill="#015640"/>
<path d="M28.6037 21.2054L27.903 20.7821L28.9412 19.2487L26.278 15.9319C25.6508 16.317 24.741 17.0213 23.3618 17.1982H23.3507C23.3507 17.1982 23.6735 15.8695 22.7602 14.5893L23.3544 14.2493C24.033 15.1999 24.0147 15.6509 24.1174 16.2025C24.6823 15.9527 25.5554 15.4497 26.1423 15.075L26.4687 14.8668L29.9572 19.2105L28.6037 21.2054Z" fill="#015640"/>
<path d="M8.93811 19.8449L7.74226 19.8657L9.91388 17.5447H14.9577L15.9041 16.5004L15.0311 15.6677L10.6879 15.6712L9.83314 14.8871L15.4676 14.9045L17.0559 16.4067L15.3428 18.3322H10.288L8.93811 19.8449Z" fill="#015640"/>
<path d="M14.4193 13.9228H9.0527L8.20536 13.1352H13.6087L14.4193 13.9228Z" fill="#015640"/>
<path d="M14.465 30.0415L11.7872 27.0751L14.4173 23.9735H15.305L12.8803 27.0925L15.4664 30.0415H14.465Z" fill="#015640"/>
<path d="M16.9944 30.0411L14.4193 27.1198L17.2585 24.1188L16.5652 20.1429L14.8338 18.1931L15.4721 17.6866L17.3502 19.8029L18.1463 24.3825L15.5528 27.1476L18.0142 30.0411H16.9944Z" fill="#015640"/>
<path d="M19.9273 21.774H18.3353L18.1519 20.9899H19.5642L22.0513 18.4121L22.6675 18.943L19.9273 21.774Z" fill="#015640"/>
<path d="M17.4524 0.648774C17.5625 0.700815 17.6725 0.752849 17.7826 0.80489C17.8156 0.818767 17.8486 0.836116 17.8816 0.849994C17.8266 1.49183 18.1714 2.0955 18.7987 2.39734C19.0371 2.51183 19.2902 2.57081 19.5543 2.57081C19.9652 2.57081 20.354 2.42857 20.6695 2.16837L20.7209 2.19264L20.8126 2.23429L20.4091 2.99755C20.3467 3.1155 20.2843 3.23346 20.222 3.35142C19.5177 3.35142 18.817 3.35142 18.1127 3.35142C16.9719 3.35142 15.8274 3.35143 14.6866 3.34796C14.4848 2.97673 14.2867 2.60204 14.096 2.23429L14.2354 2.16837C14.5435 2.4251 14.936 2.56734 15.3469 2.56734C15.6147 2.56734 15.8861 2.5049 16.1282 2.38347C16.7445 2.07816 17.0856 1.46755 17.0306 0.846531C17.0599 0.832654 17.0856 0.818771 17.1149 0.808363C17.2287 0.756322 17.3424 0.700815 17.4561 0.648774M17.4598 0.00346219C17.4231 0.00346219 17.3827 0.0104001 17.3571 0.0242777C17.0489 0.163053 16.7445 0.312244 16.4363 0.454489C16.3373 0.499591 16.3006 0.537753 16.3446 0.659182C16.517 1.13102 16.2969 1.62367 15.8347 1.85265C15.6807 1.92898 15.5156 1.96714 15.3505 1.96714C15.0314 1.96714 14.7196 1.8249 14.5068 1.56122C14.4702 1.51612 14.4335 1.47101 14.3931 1.42244C14.008 1.60632 13.6411 1.77979 13.2633 1.95673C13.2706 1.99489 13.267 2.01571 13.278 2.02958C13.5971 2.63673 13.9163 3.24388 14.2464 3.84755C14.2757 3.90306 14.3821 3.95163 14.4555 3.95163C16.462 3.95857 18.4722 3.95509 20.4787 3.95856C20.5888 3.95856 20.6511 3.9204 20.6988 3.8302C20.8346 3.56305 20.9739 3.30285 21.1133 3.03918C21.3004 2.6853 21.4875 2.33489 21.6783 1.96366C21.2821 1.77632 20.9079 1.59939 20.5228 1.41898C20.4861 1.46408 20.4604 1.49877 20.431 1.52999C20.211 1.81101 19.8882 1.96366 19.5617 1.96366C19.4039 1.96366 19.2462 1.92897 19.0958 1.85611C18.6263 1.6306 18.4135 1.14489 18.5749 0.652236C18.608 0.548154 18.586 0.499591 18.4869 0.454489C18.1714 0.312244 17.8633 0.156118 17.5478 0.0173427C17.5221 0.00693454 17.4928 0 17.4598 0" fill="#015640"/>
<path d="M14.68 24.7269C12.8166 24.7269 11.0888 23.1206 11.0888 21.15C11.0888 19.1794 12.7872 17.5487 14.8707 17.5487V18.3363C13.242 18.3363 11.9178 19.5991 11.9178 21.15C11.9178 22.7008 13.242 23.9775 14.8707 23.9775L14.6764 24.7304L14.68 24.7269Z" fill="#015640"/>
<path d="M29.3298 6.90061C27.6351 5.29775 25.6433 4.08693 23.4717 3.29938C23.3836 3.46938 23.2919 3.63591 23.2039 3.80938V3.82326C25.3131 4.57959 27.25 5.75918 28.8933 7.31347C31.9453 10.2 33.629 14.0406 33.629 18.1241C33.629 22.2076 31.949 26.0482 28.8933 28.9347C25.8414 31.8212 21.7806 33.4137 17.4631 33.4137C13.1456 33.4137 9.08482 31.8247 6.03285 28.9347C2.98087 26.0482 1.29716 22.2076 1.29716 18.1241C1.29716 14.0406 2.9772 10.2 6.03285 7.31347C7.65788 5.77653 9.56905 4.61081 11.6489 3.85101C11.6489 3.85101 11.6489 3.85102 11.6489 3.84755C11.5536 3.67755 11.4655 3.50408 11.3738 3.33408C9.23524 4.12163 7.26907 5.32204 5.60002 6.90408C2.43066 9.90163 0.68457 13.888 0.68457 18.1276C0.68457 22.3671 2.43066 26.3535 5.60002 29.351C8.76938 32.3486 12.9842 34 17.4668 34C21.9494 34 26.1642 32.3486 29.3335 29.351C32.5029 26.3535 34.249 22.3671 34.249 18.1276C34.249 13.888 32.5029 9.90163 29.3335 6.90408" fill="#015640"/>
<path d="M15.2598 30.0412H13.9539C13.9539 30.0412 14.2436 29.8677 13.9539 29.4756C13.6934 29.1252 15.2598 30.0412 15.2598 30.0412Z" fill="#015640"/>
<path d="M17.8178 30.0412H16.5119C16.5119 30.0412 16.8017 29.8677 16.5119 29.4756C16.2515 29.1252 17.8178 30.0412 17.8178 30.0412Z" fill="#015640"/>
<path d="M26.1703 21.6628L25.5431 20.4381C25.5431 20.4381 25.8072 20.6463 26.1116 20.2646C26.2767 20.0565 26.6472 20.8891 26.4125 21.2187C26.1483 21.5934 26.1703 21.6628 26.1703 21.6628Z" fill="#015640"/>
<path d="M28.3581 21.6625L27.7308 20.4378C27.7308 20.4378 27.9729 20.6564 28.3691 20.0943C28.5231 19.8758 28.8349 20.8888 28.6002 21.2184C28.3361 21.5931 28.3581 21.6625 28.3581 21.6625Z" fill="#015640"/>
<path d="M49.477 12.8156L46.8139 9.33577H45.4309V17.4992H46.7001V11.237L49.2863 14.578H49.6641L52.2502 11.237V17.4992H53.5194V9.33577H52.1402L49.477 12.8156Z" fill="#015640"/>
<path d="M68.6933 9.21422C66.2429 9.21422 64.2474 11.1016 64.2474 13.4191C64.2474 15.7367 66.2429 17.624 68.6933 17.624C71.1437 17.624 73.0328 15.6985 73.0328 13.4191C73.0328 11.1397 71.0447 9.21422 68.6933 9.21422ZM68.6933 16.4271C66.9399 16.4271 65.5129 15.0775 65.5129 13.4191C65.5129 11.7607 66.9399 10.4111 68.6933 10.4111C70.4467 10.4111 71.7673 11.7885 71.7673 13.4191C71.7673 15.0497 70.3587 16.4271 68.6933 16.4271Z" fill="#015640"/>
<path d="M89.3374 12.8086L84.9172 9.33577H83.7543V17.4992H85.0199V10.9941L89.3374 14.3213V17.4992H90.614V9.33577H89.3374V12.8086Z" fill="#015640"/>
<path d="M103.077 9.34705H101.812V17.5001H106.988V16.3379H103.077V9.34705Z" fill="#015640"/>
<path d="M118.985 9.32571H117.705V17.5031H118.985V9.32571Z" fill="#015640"/>
<path d="M135.364 13.1282C135.911 12.7708 136.219 12.181 136.219 11.4629C136.219 10.1237 135.155 9.32571 133.376 9.32571H130.427V17.5031H133.471C135.481 17.5031 136.685 16.5871 136.685 15.0502C136.685 14.2071 136.156 13.4612 135.364 13.1316M133.471 16.3408H131.729V13.7527H133.163C133.691 13.7527 135.415 13.8463 135.415 15.0537C135.415 16.261 133.798 16.3408 133.471 16.3408ZM133.578 12.6563H131.729V10.4602H133.376C133.75 10.4602 134.964 10.5365 134.964 11.5114C134.964 12.2678 134.498 12.6529 133.578 12.6529" fill="#015640"/>
<path d="M45.3774 23.6889V20.8231H45.5352L46.8411 23.6195H46.72L48.0296 20.8231H48.1837V23.6889H48.0149V20.9897H48.1176L46.8558 23.6889H46.7053L45.4361 20.9862H45.5389V23.6889H45.3701H45.3774Z" fill="#015640"/>
<path d="M49.6715 22.2562C49.6715 21.9544 49.7228 21.6907 49.8292 21.4756C49.9319 21.257 50.086 21.0905 50.2841 20.9725C50.4822 20.8546 50.7243 20.7956 51.0067 20.7956C51.2892 20.7956 51.5203 20.8546 51.722 20.9725C51.9238 21.0905 52.0779 21.257 52.1842 21.4756C52.2943 21.6941 52.3493 21.9544 52.3493 22.2527C52.3493 22.5511 52.2943 22.8182 52.1842 23.0368C52.0742 23.2554 51.9201 23.4254 51.7184 23.5433C51.5166 23.6613 51.2818 23.7237 51.0104 23.7237C50.7389 23.7237 50.4895 23.6648 50.2914 23.5433C50.0933 23.4254 49.9393 23.2554 49.8329 23.0368C49.7265 22.8182 49.6751 22.558 49.6751 22.2562H49.6715ZM49.8659 22.2562C49.8659 22.6656 49.9613 22.9848 50.1594 23.2137C50.3538 23.4427 50.6362 23.5572 51.0104 23.5572C51.3845 23.5572 51.6487 23.4427 51.8541 23.2172C52.0558 22.9882 52.1585 22.669 52.1585 22.2597C52.1585 21.8503 52.0558 21.5276 51.8541 21.3021C51.6523 21.0766 51.3699 20.9621 51.0104 20.9621C50.6509 20.9621 50.3538 21.0766 50.1594 21.3021C49.965 21.5276 49.8659 21.8468 49.8659 22.2597V22.2562Z" fill="#015640"/>
<path d="M53.8257 23.6889V20.8231H53.9797L56.089 23.5189H55.9973V20.8231H56.166V23.6889H56.0156L53.9064 20.9931H53.9908V23.6889H53.822H53.8257Z" fill="#015640"/>
<path d="M57.7769 20.8231H59.6147V20.9827H57.9566V22.1589H59.5193V22.3185H57.9566V23.5327H59.6147V23.6923H57.7769V20.8231Z" fill="#015640"/>
<path d="M61.7676 23.6889V22.3636L61.8153 22.5162L60.6048 20.8231H60.8138L61.896 22.3601H61.8299L62.9121 20.8231H63.1138L61.9033 22.5162L61.9473 22.3636V23.6889H61.7676Z" fill="#015640"/>
<path d="M68.0091 23.6889V20.8231H68.1889V23.5293H69.8139V23.6889H68.0091Z" fill="#015640"/>
<path d="M71.0672 23.6889V20.8231H71.2469V23.6889H71.0672Z" fill="#015640"/>
<path d="M72.8512 23.6889V20.8231H73.9553C74.2745 20.8231 74.5202 20.8891 74.689 21.0174C74.8614 21.1458 74.9457 21.3297 74.9457 21.5725C74.9457 21.7564 74.887 21.9091 74.766 22.027C74.6486 22.145 74.4872 22.2248 74.2818 22.2629V22.2074C74.5092 22.2248 74.6853 22.2976 74.8174 22.4191C74.9457 22.5405 75.0118 22.707 75.0118 22.9152C75.0118 23.1685 74.9274 23.3627 74.755 23.4946C74.5826 23.6264 74.3368 23.6923 74.0104 23.6923H72.8475L72.8512 23.6889ZM73.0309 22.1623H73.948C74.2158 22.1623 74.4175 22.1103 74.5532 22.0097C74.6926 21.9091 74.7587 21.7634 74.7587 21.5725C74.7587 21.3817 74.689 21.2325 74.5532 21.1319C74.4139 21.0313 74.2121 20.9827 73.948 20.9827H73.0309V22.1623ZM73.0309 23.5327H74.0104C74.2561 23.5327 74.4542 23.4876 74.6046 23.394C74.755 23.3003 74.8284 23.1476 74.8284 22.9256C74.8284 22.7036 74.755 22.5474 74.6046 22.4572C74.4542 22.367 74.2561 22.3219 74.0104 22.3219H73.0309V23.5327Z" fill="#015640"/>
<path d="M76.5113 20.8231H78.3491V20.9827H76.6911V22.1589H78.2538V22.3185H76.6911V23.5327H78.3491V23.6923H76.5113V20.8231Z" fill="#015640"/>
<path d="M79.7873 23.6889V20.8231H80.9465C81.2546 20.8231 81.4894 20.8925 81.6618 21.0278C81.8342 21.1631 81.9149 21.354 81.9149 21.6003C81.9149 21.7599 81.8782 21.8952 81.7975 22.0097C81.7205 22.1207 81.6141 22.2074 81.4821 22.2664C81.35 22.3254 81.1959 22.3532 81.0235 22.3532L81.1152 22.3219H81.1482C81.2619 22.3219 81.3646 22.3462 81.4564 22.3983C81.5481 22.4503 81.6178 22.537 81.6728 22.6689L82.091 23.6923H81.8892L81.5114 22.7348C81.4527 22.5856 81.372 22.4919 81.2583 22.4468C81.1446 22.4017 81.0052 22.3844 80.8291 22.3844H79.9634V23.6923H79.7837L79.7873 23.6889ZM79.9671 22.2213H80.9282C81.1849 22.2213 81.383 22.1693 81.5187 22.0617C81.6544 21.9542 81.7205 21.8015 81.7205 21.6003C81.7205 21.3991 81.6544 21.2464 81.5187 21.1423C81.383 21.0383 81.1886 20.9827 80.9282 20.9827H79.9671V22.2213Z" fill="#015640"/>
<path d="M84.1636 23.6889V20.9827H83.0375V20.8231H85.4695V20.9827H84.3433V23.6889H84.1636Z" fill="#015640"/>
<path d="M87.5043 23.6889V22.3636L87.552 22.5162L86.3415 20.8231H86.5506L87.6328 22.3601H87.5667L88.6488 20.8231H88.8506L87.64 22.5162L87.6841 22.3636V23.6889H87.5043Z" fill="#015640"/>
<path d="M93.7443 23.6889V20.8231H94.8484C95.1676 20.8231 95.4133 20.8891 95.5821 21.0174C95.7545 21.1458 95.8389 21.3297 95.8389 21.5725C95.8389 21.7564 95.7802 21.9091 95.6591 22.027C95.5417 22.145 95.3803 22.2248 95.1749 22.2629V22.2074C95.4023 22.2248 95.5784 22.2976 95.7104 22.4191C95.8388 22.5405 95.9049 22.707 95.9049 22.9152C95.9049 23.1685 95.8205 23.3627 95.6481 23.4946C95.4757 23.6264 95.2299 23.6923 94.9035 23.6923H93.7406L93.7443 23.6889ZM93.924 22.1623H94.8411C95.1089 22.1623 95.3106 22.1103 95.4463 22.0097C95.5857 21.9091 95.6518 21.7634 95.6518 21.5725C95.6518 21.3817 95.5821 21.2325 95.4463 21.1319C95.3069 21.0313 95.1052 20.9827 94.8411 20.9827H93.924V22.1623ZM93.924 23.5327H94.9035C95.1492 23.5327 95.3473 23.4876 95.4977 23.394C95.6481 23.3003 95.7215 23.1476 95.7215 22.9256C95.7215 22.7036 95.6481 22.5474 95.4977 22.4572C95.3473 22.367 95.1492 22.3219 94.9035 22.3219H93.924V23.5327Z" fill="#015640"/>
<path d="M97.2801 22.2562C97.2801 21.9544 97.3315 21.6907 97.4379 21.4756C97.5406 21.257 97.6946 21.0905 97.8927 20.9725C98.0908 20.8546 98.3329 20.7956 98.6153 20.7956C98.8978 20.7956 99.1289 20.8546 99.3306 20.9725C99.5324 21.0905 99.6865 21.257 99.7928 21.4756C99.9029 21.6941 99.9579 21.9544 99.9579 22.2527C99.9579 22.5511 99.9029 22.8182 99.7928 23.0368C99.6828 23.2554 99.5288 23.4254 99.327 23.5433C99.1253 23.6613 98.8905 23.7237 98.619 23.7237C98.3476 23.7237 98.0982 23.6648 97.9001 23.5433C97.702 23.4254 97.5479 23.2554 97.4415 23.0368C97.3351 22.8182 97.2838 22.558 97.2838 22.2562H97.2801ZM97.4745 22.2562C97.4745 22.6656 97.5699 22.9848 97.768 23.2137C97.9624 23.4427 98.2449 23.5572 98.619 23.5572C98.9932 23.5572 99.2573 23.4427 99.4627 23.2172C99.6645 22.9882 99.7672 22.669 99.7672 22.2597C99.7672 21.8503 99.6645 21.5276 99.4627 21.3021C99.261 21.0766 98.9785 20.9621 98.619 20.9621C98.2595 20.9621 97.9624 21.0766 97.768 21.3021C97.5736 21.5276 97.4745 21.8468 97.4745 22.2597V22.2562Z" fill="#015640"/>
<path d="M101.44 23.6889V20.8231H101.594L103.703 23.5189H103.611V20.8231H103.78V23.6889H103.63L101.52 20.9931H101.605V23.6889H101.436H101.44Z" fill="#015640"/>
<path d="M106.517 23.7236C106.125 23.7236 105.835 23.6264 105.644 23.4356C105.457 23.2448 105.362 22.9638 105.362 22.5925V20.8231H105.541V22.5683C105.541 22.8978 105.618 23.1476 105.776 23.3107C105.934 23.4738 106.18 23.557 106.517 23.557C106.836 23.557 107.078 23.4738 107.244 23.3107C107.409 23.1476 107.493 22.8978 107.493 22.5683V20.8231H107.673V22.5925C107.673 22.9603 107.574 23.2413 107.376 23.4356C107.177 23.6264 106.891 23.7236 106.517 23.7236Z" fill="#015640"/>
<path d="M110.189 23.724C109.947 23.724 109.734 23.6928 109.555 23.6338C109.375 23.5749 109.214 23.4846 109.07 23.3667L109.162 23.221C109.269 23.3008 109.371 23.3632 109.467 23.4153C109.562 23.4673 109.672 23.502 109.786 23.5263C109.903 23.5506 110.035 23.561 110.189 23.561C110.468 23.561 110.681 23.5089 110.828 23.4014C110.974 23.2938 111.044 23.1516 111.044 22.9712C111.044 22.8185 110.993 22.704 110.89 22.6208C110.787 22.5375 110.615 22.4751 110.369 22.43L109.944 22.3502C109.665 22.2946 109.459 22.2114 109.324 22.0934C109.188 21.9755 109.122 21.8159 109.122 21.6112C109.122 21.4481 109.166 21.3059 109.254 21.1844C109.342 21.063 109.467 20.9693 109.624 20.9C109.782 20.8306 109.966 20.7993 110.175 20.7993C110.384 20.7993 110.578 20.8306 110.754 20.893C110.93 20.9555 111.081 21.0491 111.205 21.174L111.121 21.3197C110.982 21.1914 110.835 21.1012 110.688 21.0491C110.541 20.9971 110.369 20.9693 110.178 20.9693C109.914 20.9693 109.705 21.0283 109.547 21.1428C109.39 21.2608 109.313 21.4169 109.313 21.6146C109.313 21.7742 109.364 21.8991 109.463 21.9859C109.562 22.0726 109.723 22.1385 109.947 22.1836L110.376 22.2634C110.674 22.3189 110.89 22.4022 111.029 22.5097C111.165 22.6173 111.235 22.77 111.235 22.9712C111.235 23.1204 111.194 23.2522 111.11 23.3667C111.026 23.4812 110.908 23.5714 110.751 23.6338C110.593 23.6963 110.409 23.731 110.193 23.731L110.189 23.724Z" fill="#015640"/>
<path d="M117.255 23.724C117.013 23.724 116.8 23.6928 116.62 23.6338C116.441 23.5749 116.279 23.4846 116.136 23.3667L116.228 23.221C116.334 23.3008 116.437 23.3632 116.532 23.4153C116.628 23.4673 116.738 23.502 116.852 23.5263C116.969 23.5506 117.101 23.561 117.255 23.561C117.534 23.561 117.747 23.5089 117.893 23.4014C118.04 23.2938 118.11 23.1516 118.11 22.9712C118.11 22.8185 118.058 22.704 117.956 22.6208C117.853 22.5375 117.681 22.4751 117.435 22.43L117.009 22.3502C116.731 22.2946 116.525 22.2114 116.389 22.0934C116.254 21.9755 116.188 21.8159 116.188 21.6112C116.188 21.4481 116.232 21.3059 116.32 21.1844C116.408 21.063 116.532 20.9693 116.69 20.9C116.848 20.8306 117.031 20.7993 117.24 20.7993C117.45 20.7993 117.644 20.8306 117.82 20.893C117.996 20.9555 118.146 21.0491 118.271 21.174L118.187 21.3197C118.047 21.1914 117.901 21.1012 117.754 21.0491C117.607 20.9971 117.435 20.9693 117.244 20.9693C116.98 20.9693 116.771 21.0283 116.613 21.1428C116.455 21.2608 116.378 21.4169 116.378 21.6146C116.378 21.7742 116.43 21.8991 116.529 21.9859C116.628 22.0726 116.789 22.1385 117.013 22.1836L117.442 22.2634C117.739 22.3189 117.956 22.4022 118.095 22.5097C118.231 22.6173 118.301 22.77 118.301 22.9712C118.301 23.1204 118.26 23.2522 118.176 23.3667C118.091 23.4812 117.974 23.5714 117.816 23.6338C117.659 23.6963 117.475 23.731 117.259 23.731L117.255 23.724Z" fill="#015640"/>
<path d="M120.376 23.6889V22.3636L120.423 22.5162L119.213 20.8231H119.422L120.504 22.3601H120.438L121.52 20.8231H121.722L120.511 22.5162L120.555 22.3636V23.6889H120.376Z" fill="#015640"/>
<path d="M123.739 23.724C123.497 23.724 123.284 23.6928 123.104 23.6338C122.925 23.5749 122.763 23.4846 122.62 23.3667L122.712 23.221C122.818 23.3008 122.921 23.3632 123.016 23.4153C123.112 23.4673 123.222 23.502 123.335 23.5263C123.453 23.5506 123.585 23.561 123.739 23.561C124.018 23.561 124.23 23.5089 124.377 23.4014C124.524 23.2938 124.594 23.1516 124.594 22.9712C124.594 22.8185 124.542 22.704 124.439 22.6208C124.337 22.5375 124.164 22.4751 123.919 22.43L123.493 22.3502C123.214 22.2946 123.009 22.2114 122.873 22.0934C122.737 21.9755 122.671 21.8159 122.671 21.6112C122.671 21.4481 122.715 21.3059 122.803 21.1844C122.892 21.063 123.016 20.9693 123.174 20.9C123.332 20.8306 123.515 20.7993 123.724 20.7993C123.933 20.7993 124.128 20.8306 124.304 20.893C124.48 20.9555 124.63 21.0491 124.755 21.174L124.671 21.3197C124.531 21.1914 124.384 21.1012 124.238 21.0491C124.091 20.9971 123.919 20.9693 123.728 20.9693C123.464 20.9693 123.255 21.0283 123.097 21.1428C122.939 21.2608 122.862 21.4169 122.862 21.6146C122.862 21.7742 122.913 21.8991 123.013 21.9859C123.112 22.0726 123.273 22.1385 123.497 22.1836L123.926 22.2634C124.223 22.3189 124.439 22.4022 124.579 22.5097C124.715 22.6173 124.784 22.77 124.784 22.9712C124.784 23.1204 124.744 23.2522 124.66 23.3667C124.575 23.4812 124.458 23.5714 124.3 23.6338C124.142 23.6963 123.959 23.731 123.743 23.731L123.739 23.724Z" fill="#015640"/>
<path d="M126.868 23.6889V20.9827H125.742V20.8231H128.174V20.9827H127.048V23.6889H126.868Z" fill="#015640"/>
<path d="M129.427 20.8231H131.264V20.9827H129.606V22.1589H131.169V22.3185H129.606V23.5327H131.264V23.6923H129.427V20.8231Z" fill="#015640"/>
<path d="M132.701 23.6889V20.8231H132.859L134.165 23.6195H134.044L135.353 20.8231H135.507V23.6889H135.338V20.9897H135.441L134.179 23.6889H134.029L132.76 20.9862H132.862V23.6889H132.694H132.701Z" fill="#015640"/>
</g>
</svg>
