<svg width="296" height="74" viewBox="0 0 296 74" fill="none" xmlns="http://www.w3.org/2000/svg">
<path d="M37.8964 33.9485C37.8964 33.8957 37.7926 28.2475 37.8964 23.0675C37.9922 18.5369 42.4391 16.7926 45.0658 16.4453L46.1676 15.3579L53.9518 26.7373L50.0877 28.9497L46.0478 25.7783C44.7225 25.4914 43.8203 24.8949 43.3573 23.9963C42.6068 22.5314 43.4292 20.9457 43.525 20.772L45.1376 21.5497C44.9939 21.8216 44.6826 22.6597 44.994 23.2487C45.2175 23.6791 45.7684 23.9736 46.6307 24.1322L46.8542 24.1699L50.2553 26.8354L51.421 26.1634L45.8802 18.0612L45.5848 18.0914C45.3532 18.114 39.8045 18.6954 39.7087 23.0826C39.6049 28.2324 39.7087 33.8428 39.7087 33.9032L37.8964 33.9334V33.9485Z" fill="#FAFDF9"/>
<path d="M56.0065 46.1745L54.5214 45.1928L56.8527 42.0365L54.8169 39.8996C48.35 44.1886 43.8471 40.0129 43.8072 39.9751L29.4603 26.4135H13.5965L11.7282 24.6994H30.2107L45.0606 38.7443C45.1963 38.8576 48.8291 42.2026 54.4177 38.042L55.1282 37.5135L59.1042 41.9686L55.9985 46.1669L56.0065 46.1745Z" fill="#FAFDF9"/>
<path d="M60.7651 46.1529L59.2402 45.2317L61.4997 41.8941L55.7034 34.6754C54.3382 35.5135 52.3581 37.0464 49.3562 37.4315H49.3322C49.3322 37.4315 50.0348 34.5394 48.0469 31.7531L49.3402 31.0131C50.8172 33.0821 50.7774 34.0637 51.0009 35.2643C52.2304 34.7207 54.1306 33.6258 55.408 32.8103L56.1185 32.3572L63.7111 41.8111L60.7651 46.1529Z" fill="#FAFDF9"/>
<path d="M17.9636 43.1918L15.3609 43.2371L20.0873 38.1855H31.0651L33.1249 35.9127L31.2247 34.1004L21.7719 34.1079L19.9116 32.4014L32.1747 32.4392L35.6318 35.7088L31.9033 39.8996H20.9016L17.9636 43.1918Z" fill="#FAFDF9"/>
<path d="M29.8933 30.3025H18.213L16.3688 28.5885H28.1289L29.8933 30.3025Z" fill="#FAFDF9"/>
<path d="M29.9926 65.3844L24.1645 58.9282L29.8888 52.1776H31.821L26.5437 58.966L32.1722 65.3844H29.9926Z" fill="#FAFDF9"/>
<path d="M35.4979 65.3835L29.8933 59.0256L36.0727 52.4939L34.5638 43.8405L30.7954 39.5968L32.1846 38.4943L36.2723 43.1005L38.0049 53.0678L32.3603 59.086L37.7175 65.3835H35.4979Z" fill="#FAFDF9"/>
<path d="M41.8813 47.3904H38.4164L38.0172 45.6839H41.0909L46.504 40.0735L47.8452 41.2288L41.8813 47.3904Z" fill="#FAFDF9"/>
<path d="M36.4948 1.41204C36.7343 1.5253 36.9738 1.63855 37.2133 1.75182C37.2852 1.78202 37.3571 1.81978 37.4289 1.84999C37.3092 3.24692 38.0596 4.5608 39.4249 5.21773C39.9438 5.46692 40.4947 5.59529 41.0695 5.59529C41.9637 5.59529 42.81 5.28571 43.4966 4.71939L43.6084 4.77223L43.808 4.86286L42.9298 6.52407C42.7941 6.7808 42.6583 7.03753 42.5226 7.29427C40.9897 7.29427 39.4648 7.29427 37.9319 7.29427C35.4489 7.29427 32.9579 7.29428 30.4749 7.28673C30.0358 6.47877 29.6047 5.66327 29.1896 4.86286L29.493 4.71939C30.1636 5.27816 31.0179 5.58775 31.9121 5.58775C32.4949 5.58775 33.0857 5.45183 33.6126 5.18755C34.9539 4.52306 35.6964 3.19408 35.5766 1.84245C35.6405 1.81225 35.6964 1.78203 35.7602 1.75938C36.0077 1.64611 36.2553 1.5253 36.5028 1.41204M36.5108 0.00753535C36.4309 0.00753535 36.3431 0.0226355 36.2872 0.0528396C35.6165 0.35488 34.9539 0.67959 34.2832 0.989182C34.0677 1.08735 33.9878 1.1704 34.0836 1.43469C34.4589 2.46163 33.9798 3.53387 32.9739 4.03224C32.6386 4.19836 32.2793 4.28142 31.9201 4.28142C31.2255 4.28142 30.5468 3.97184 30.0837 3.39796C30.0039 3.2998 29.9241 3.20161 29.8363 3.0959C28.998 3.4961 28.1996 3.87366 27.3772 4.25876C27.3932 4.34183 27.3852 4.38712 27.4092 4.41733C28.1038 5.73876 28.7984 7.0602 29.5169 8.37408C29.5808 8.49489 29.8123 8.6006 29.972 8.6006C34.3391 8.6157 38.7143 8.60814 43.0814 8.61569C43.3209 8.61569 43.4566 8.53264 43.5604 8.33631C43.8558 7.75488 44.1592 7.18856 44.4626 6.61468C44.8698 5.84447 45.277 5.08182 45.6922 4.27386C44.8299 3.8661 44.0155 3.48102 43.1772 3.08836C43.0974 3.18653 43.0415 3.26202 42.9776 3.32998C42.4986 3.94161 41.796 4.27386 41.0855 4.27386C40.7422 4.27386 40.3988 4.19835 40.0715 4.03978C39.0496 3.54896 38.5866 2.49182 38.9379 1.41957C39.0097 1.19304 38.9618 1.08735 38.7463 0.989182C38.0597 0.67959 37.389 0.339787 36.7024 0.0377459C36.6465 0.0150928 36.5826 0 36.5108 0" fill="#FAFDF9"/>
<path d="M30.4607 53.8174C26.4049 53.8174 22.6445 50.3213 22.6445 46.0323C22.6445 41.7433 26.341 38.1943 30.8758 38.1943V39.9084C27.331 39.9084 24.4489 42.657 24.4489 46.0323C24.4489 49.4076 27.331 52.1864 30.8758 52.1864L30.4527 53.8249L30.4607 53.8174Z" fill="#FAFDF9"/>
<path d="M62.3456 15.019C58.6571 11.5304 54.3219 8.89509 49.5955 7.18101C49.4039 7.55101 49.2043 7.91346 49.0127 8.29101V8.32122C53.6034 9.96734 57.8188 12.5347 61.3956 15.9175C68.0381 22.2 71.7026 30.559 71.7026 39.4465C71.7026 48.3341 68.0461 56.6931 61.3956 62.9755C54.753 69.258 45.9149 72.7239 36.518 72.7239C27.121 72.7239 18.2829 69.2655 11.6404 62.9755C4.99784 56.6931 1.33328 48.3341 1.33328 39.4465C1.33328 30.559 4.98985 22.2 11.6404 15.9175C15.1772 12.5724 19.3368 10.0353 23.8636 8.38162C23.8636 8.38162 23.8636 8.38163 23.8636 8.37408C23.6561 8.00408 23.4645 7.62652 23.2649 7.25652C18.6103 8.9706 14.331 11.5833 10.6983 15.0265C3.80032 21.5506 0 30.2267 0 39.4541C0 48.6814 3.80032 57.3575 10.6983 63.8816C17.5964 70.4057 26.7697 74 36.526 74C46.2822 74 55.4556 70.4057 62.3536 63.8816C69.2516 57.3575 73.0519 48.6814 73.0519 39.4541C73.0519 30.2267 69.2516 21.5506 62.3536 15.0265" fill="#FAFDF9"/>
<path d="M31.7225 65.3837H28.8802C28.8802 65.3837 29.5109 65.0061 28.8802 64.1529C28.3134 63.3902 31.7225 65.3837 31.7225 65.3837Z" fill="#FAFDF9"/>
<path d="M37.29 65.3837H34.4478C34.4478 65.3837 35.0785 65.0061 34.4478 64.1529C33.8809 63.3902 37.29 65.3837 37.29 65.3837Z" fill="#FAFDF9"/>
<path d="M55.469 47.1485L54.1038 44.483C54.1038 44.483 54.6786 44.936 55.3412 44.1054C55.7005 43.6523 56.5069 45.4646 55.996 46.1819C55.4211 46.9974 55.469 47.1485 55.469 47.1485Z" fill="#FAFDF9"/>
<path d="M60.2305 47.1478L58.8653 44.4823C58.8653 44.4823 59.3922 44.958 60.2545 43.7348C60.5898 43.259 61.2684 45.4639 60.7575 46.1813C60.1826 46.9968 60.2305 47.1478 60.2305 47.1478Z" fill="#FAFDF9"/>
<path d="M106.195 27.8927L100.399 20.319H97.3892V38.0866H100.152V24.457L105.78 31.7286H106.603L112.231 24.457V38.0866H114.994V20.319H111.992L106.195 27.8927Z" fill="#FAFDF9"/>
<path d="M148.019 20.0545C142.686 20.0545 138.343 24.1622 138.343 29.2063C138.343 34.2504 142.686 38.3581 148.019 38.3581C153.352 38.3581 157.464 34.1673 157.464 29.2063C157.464 24.2453 153.137 20.0545 148.019 20.0545ZM148.019 35.753C144.203 35.753 141.097 32.8157 141.097 29.2063C141.097 25.5969 144.203 22.6596 148.019 22.6596C151.835 22.6596 154.71 25.6573 154.71 29.2063C154.71 32.7553 151.644 35.753 148.019 35.753Z" fill="#FAFDF9"/>
<path d="M192.95 27.8776L183.33 20.319H180.799V38.0866H183.553V23.9284L192.95 31.1699V38.0866H195.729V20.319H192.95V27.8776Z" fill="#FAFDF9"/>
<path d="M222.855 20.3436H220.1V38.0885H231.365V35.5589H222.855V20.3436Z" fill="#FAFDF9"/>
<path d="M257.478 20.2971H254.692V38.0949H257.478V20.2971Z" fill="#FAFDF9"/>
<path d="M293.126 28.5731C294.315 27.7953 294.986 26.5116 294.986 24.9486C294.986 22.0339 292.671 20.2971 288.799 20.2971H282.38V38.0949H289.006C293.381 38.0949 296 36.1014 296 32.7563C296 30.9214 294.85 29.2979 293.126 28.5806M289.006 35.5653H285.214V29.9322H288.336C289.485 29.9322 293.238 30.1361 293.238 32.7639C293.238 35.3916 289.717 35.5653 289.006 35.5653ZM289.238 27.5461H285.214V22.7663H288.799C289.613 22.7663 292.256 22.9324 292.256 25.0543C292.256 26.7004 291.242 27.5386 289.238 27.5386" fill="#FAFDF9"/>
<path d="M97.2727 51.5581V45.321H97.6161L100.458 51.4071H100.195L103.045 45.321H103.38V51.5581H103.013V45.6834H103.237L100.49 51.5581H100.163L97.4005 45.6759H97.6241V51.5581H97.2567H97.2727Z" fill="#FAFDF9"/>
<path d="M106.619 48.4399C106.619 47.783 106.73 47.2091 106.962 46.741C107.185 46.2653 107.521 45.9028 107.952 45.6461C108.383 45.3893 108.91 45.261 109.525 45.261C110.139 45.261 110.642 45.3893 111.082 45.6461C111.521 45.9028 111.856 46.2653 112.088 46.741C112.327 47.2167 112.447 47.783 112.447 48.4324C112.447 49.0818 112.327 49.6632 112.088 50.1389C111.848 50.6146 111.513 50.9846 111.074 51.2414C110.634 51.4981 110.123 51.634 109.533 51.634C108.942 51.634 108.399 51.5057 107.968 51.2414C107.537 50.9846 107.201 50.6146 106.97 50.1389C106.738 49.6632 106.627 49.0969 106.627 48.4399H106.619ZM107.042 48.4399C107.042 49.331 107.249 50.0256 107.68 50.524C108.104 51.0224 108.718 51.2716 109.533 51.2716C110.347 51.2716 110.922 51.0224 111.369 50.5316C111.808 50.0332 112.032 49.3385 112.032 48.4475C112.032 47.5565 111.808 46.8542 111.369 46.3634C110.93 45.8726 110.315 45.6234 109.533 45.6234C108.75 45.6234 108.104 45.8726 107.68 46.3634C107.257 46.8542 107.042 47.5489 107.042 48.4475V48.4399Z" fill="#FAFDF9"/>
<path d="M115.66 51.5581V45.321H115.995L120.586 51.1881H120.386V45.321H120.754V51.5581H120.426L115.836 45.691H116.019V51.5581H115.652H115.66Z" fill="#FAFDF9"/>
<path d="M124.26 45.321H128.26V45.6683H124.651V48.2281H128.052V48.5755H124.651V51.2183H128.26V51.5657H124.26V45.321Z" fill="#FAFDF9"/>
<path d="M132.945 51.5581V48.6736L133.049 49.0059L130.415 45.321H130.87L133.225 48.6661H133.081L135.436 45.321H135.875L133.241 49.0059L133.337 48.6736V51.5581H132.945Z" fill="#FAFDF9"/>
<path d="M146.53 51.5581V45.321H146.921V51.2108H150.458V51.5581H146.53Z" fill="#FAFDF9"/>
<path d="M153.186 51.5581V45.321H153.577V51.5581H153.186Z" fill="#FAFDF9"/>
<path d="M157.068 51.5581V45.321H159.472C160.166 45.321 160.701 45.4644 161.068 45.7438C161.444 46.0232 161.627 46.4234 161.627 46.952C161.627 47.3522 161.499 47.6844 161.236 47.9412C160.981 48.1979 160.629 48.3716 160.182 48.4546V48.3338C160.677 48.3716 161.06 48.5302 161.348 48.7944C161.627 49.0587 161.771 49.4212 161.771 49.8742C161.771 50.4255 161.587 50.8483 161.212 51.1353C160.837 51.4222 160.302 51.5657 159.591 51.5657H157.061L157.068 51.5581ZM157.46 48.2356H159.456C160.038 48.2356 160.478 48.1224 160.773 47.9034C161.076 47.6845 161.22 47.3673 161.22 46.952C161.22 46.5367 161.068 46.212 160.773 45.993C160.47 45.774 160.03 45.6683 159.456 45.6683H157.46V48.2356ZM157.46 51.2183H159.591C160.126 51.2183 160.557 51.1202 160.885 50.9163C161.212 50.7124 161.372 50.3802 161.372 49.8969C161.372 49.4136 161.212 49.0738 160.885 48.8775C160.557 48.6812 160.126 48.583 159.591 48.583H157.46V51.2183Z" fill="#FAFDF9"/>
<path d="M165.035 45.321H169.035V45.6683H165.426V48.2281H168.827V48.5755H165.426V51.2183H169.035V51.5657H165.035V45.321Z" fill="#FAFDF9"/>
<path d="M172.165 51.5581V45.321H174.688C175.358 45.321 175.869 45.472 176.245 45.7665C176.62 46.061 176.795 46.4763 176.795 47.0124C176.795 47.3597 176.716 47.6543 176.54 47.9034C176.372 48.1451 176.141 48.3338 175.853 48.4622C175.566 48.5906 175.231 48.651 174.855 48.651L175.055 48.583H175.127C175.374 48.583 175.598 48.6359 175.797 48.7491C175.997 48.8624 176.149 49.0512 176.269 49.3381L177.179 51.5657H176.74L175.917 49.4816C175.789 49.1569 175.614 48.953 175.366 48.8548C175.119 48.7567 174.815 48.7189 174.432 48.7189H172.548V51.5657H172.157L172.165 51.5581ZM172.556 48.364H174.648C175.207 48.364 175.638 48.2508 175.933 48.0167C176.229 47.7826 176.372 47.4504 176.372 47.0124C176.372 46.5744 176.229 46.2422 175.933 46.0157C175.638 45.7891 175.215 45.6683 174.648 45.6683H172.556V48.364Z" fill="#FAFDF9"/>
<path d="M181.69 51.5581V45.6683H179.239V45.321H184.532V45.6683H182.081V51.5581H181.69Z" fill="#FAFDF9"/>
<path d="M188.961 51.5581V48.6736L189.064 49.0059L186.43 45.321H186.885L189.24 48.6661H189.096L191.452 45.321H191.891L189.256 49.0059L189.352 48.6736V51.5581H188.961Z" fill="#FAFDF9"/>
<path d="M202.542 51.5581V45.321H204.945C205.639 45.321 206.174 45.4644 206.542 45.7438C206.917 46.0232 207.101 46.4234 207.101 46.952C207.101 47.3522 206.973 47.6844 206.709 47.9412C206.454 48.1979 206.103 48.3716 205.655 48.4546V48.3338C206.15 48.3716 206.534 48.5302 206.821 48.7944C207.1 49.0587 207.244 49.4212 207.244 49.8742C207.244 50.4255 207.061 50.8483 206.685 51.1353C206.31 51.4222 205.775 51.5657 205.065 51.5657H202.534L202.542 51.5581ZM202.933 48.2356H204.929C205.512 48.2356 205.951 48.1224 206.246 47.9034C206.55 47.6845 206.693 47.3673 206.693 46.952C206.693 46.5367 206.542 46.212 206.246 45.993C205.943 45.774 205.504 45.6683 204.929 45.6683H202.933V48.2356ZM202.933 51.2183H205.065C205.6 51.2183 206.031 51.1202 206.358 50.9163C206.685 50.7124 206.845 50.3802 206.845 49.8969C206.845 49.4136 206.685 49.0738 206.358 48.8775C206.031 48.6812 205.6 48.583 205.065 48.583H202.933V51.2183Z" fill="#FAFDF9"/>
<path d="M210.237 48.4399C210.237 47.783 210.349 47.2091 210.581 46.741C210.804 46.2653 211.14 45.9028 211.571 45.6461C212.002 45.3893 212.529 45.261 213.143 45.261C213.758 45.261 214.261 45.3893 214.7 45.6461C215.139 45.9028 215.475 46.2653 215.706 46.741C215.946 47.2167 216.066 47.783 216.066 48.4324C216.066 49.0818 215.946 49.6632 215.706 50.1389C215.467 50.6146 215.131 50.9846 214.692 51.2414C214.253 51.4981 213.742 51.634 213.151 51.634C212.561 51.634 212.018 51.5057 211.587 51.2414C211.156 50.9846 210.82 50.6146 210.589 50.1389C210.357 49.6632 210.245 49.0969 210.245 48.4399H210.237ZM210.66 48.4399C210.66 49.331 210.868 50.0256 211.299 50.524C211.722 51.0224 212.337 51.2716 213.151 51.2716C213.966 51.2716 214.541 51.0224 214.988 50.5316C215.427 50.0332 215.65 49.3385 215.65 48.4475C215.65 47.5565 215.427 46.8542 214.988 46.3634C214.549 45.8726 213.934 45.6234 213.151 45.6234C212.369 45.6234 211.722 45.8726 211.299 46.3634C210.876 46.8542 210.66 47.5489 210.66 48.4475V48.4399Z" fill="#FAFDF9"/>
<path d="M219.29 51.5581V45.321H219.626L224.216 51.1881H224.017V45.321H224.384V51.5581H224.057L219.466 45.691H219.65V51.5581H219.282H219.29Z" fill="#FAFDF9"/>
<path d="M230.342 51.6336C229.487 51.6336 228.857 51.4222 228.441 51.0069C228.034 50.5916 227.827 49.98 227.827 49.172V45.321H228.218V49.1191C228.218 49.8365 228.386 50.3802 228.729 50.7351C229.072 51.09 229.607 51.2712 230.342 51.2712C231.036 51.2712 231.563 51.09 231.922 50.7351C232.282 50.3802 232.465 49.8365 232.465 49.1191V45.321H232.857V49.172C232.857 49.9724 232.641 50.584 232.21 51.0069C231.779 51.4222 231.156 51.6336 230.342 51.6336Z" fill="#FAFDF9"/>
<path d="M238.334 51.6347C237.807 51.6347 237.344 51.5667 236.953 51.4383C236.561 51.31 236.21 51.1136 235.899 50.8569L236.098 50.5398C236.33 50.7134 236.553 50.8494 236.761 50.9626C236.969 51.0759 237.208 51.1514 237.456 51.2043C237.711 51.2571 237.999 51.2798 238.334 51.2798C238.941 51.2798 239.404 51.1665 239.723 50.9324C240.042 50.6983 240.194 50.3887 240.194 49.9961C240.194 49.6638 240.082 49.4147 239.859 49.2334C239.635 49.0522 239.26 48.9163 238.725 48.8181L237.799 48.6445C237.192 48.5236 236.745 48.3424 236.45 48.0857C236.154 47.829 236.011 47.4816 236.011 47.0361C236.011 46.6812 236.106 46.3716 236.298 46.1073C236.49 45.843 236.761 45.6392 237.104 45.4881C237.448 45.3371 237.847 45.2692 238.302 45.2692C238.757 45.2692 239.18 45.3371 239.563 45.473C239.947 45.609 240.274 45.8128 240.545 46.0847L240.362 46.4018C240.058 46.1224 239.739 45.9261 239.42 45.8128C239.1 45.6996 238.725 45.6392 238.31 45.6392C237.735 45.6392 237.28 45.7675 236.937 46.0167C236.593 46.2735 236.426 46.6132 236.426 47.0436C236.426 47.391 236.537 47.6628 236.753 47.8516C236.969 48.0404 237.32 48.1839 237.807 48.282L238.741 48.4557C239.388 48.5765 239.859 48.7577 240.162 48.9918C240.458 49.2259 240.609 49.5581 240.609 49.9961C240.609 50.3208 240.521 50.6077 240.338 50.8569C240.154 51.1061 239.899 51.3024 239.555 51.4383C239.212 51.5743 238.813 51.6498 238.342 51.6498L238.334 51.6347Z" fill="#FAFDF9"/>
<path d="M253.712 51.6347C253.185 51.6347 252.722 51.5667 252.331 51.4383C251.94 51.31 251.589 51.1136 251.277 50.8569L251.477 50.5398C251.708 50.7134 251.932 50.8494 252.139 50.9626C252.347 51.0759 252.587 51.1514 252.834 51.2043C253.09 51.2571 253.377 51.2798 253.712 51.2798C254.319 51.2798 254.782 51.1665 255.102 50.9324C255.421 50.6983 255.573 50.3887 255.573 49.9961C255.573 49.6638 255.461 49.4147 255.237 49.2334C255.014 49.0522 254.638 48.9163 254.104 48.8181L253.177 48.6445C252.571 48.5236 252.123 48.3424 251.828 48.0857C251.533 47.829 251.389 47.4816 251.389 47.0361C251.389 46.6812 251.485 46.3716 251.676 46.1073C251.868 45.843 252.139 45.6392 252.483 45.4881C252.826 45.3371 253.225 45.2692 253.68 45.2692C254.135 45.2692 254.559 45.3371 254.942 45.473C255.325 45.609 255.652 45.8128 255.924 46.0847L255.74 46.4018C255.437 46.1224 255.117 45.9261 254.798 45.8128C254.479 45.6996 254.104 45.6392 253.688 45.6392C253.114 45.6392 252.658 45.7675 252.315 46.0167C251.972 46.2735 251.804 46.6132 251.804 47.0436C251.804 47.391 251.916 47.6628 252.131 47.8516C252.347 48.0404 252.698 48.1839 253.185 48.282L254.119 48.4557C254.766 48.5765 255.237 48.7577 255.541 48.9918C255.836 49.2259 255.988 49.5581 255.988 49.9961C255.988 50.3208 255.9 50.6077 255.716 50.8569C255.533 51.1061 255.277 51.3024 254.934 51.4383C254.59 51.5743 254.191 51.6498 253.72 51.6498L253.712 51.6347Z" fill="#FAFDF9"/>
<path d="M260.504 51.5581V48.6736L260.608 49.0059L257.973 45.321H258.428L260.784 48.6661H260.64L262.995 45.321H263.434L260.8 49.0059L260.895 48.6736V51.5581H260.504Z" fill="#FAFDF9"/>
<path d="M267.824 51.6347C267.297 51.6347 266.834 51.5667 266.443 51.4383C266.052 51.31 265.7 51.1136 265.389 50.8569L265.589 50.5398C265.82 50.7134 266.044 50.8494 266.251 50.9626C266.459 51.0759 266.698 51.1514 266.946 51.2043C267.201 51.2571 267.489 51.2798 267.824 51.2798C268.431 51.2798 268.894 51.1665 269.213 50.9324C269.533 50.6983 269.684 50.3887 269.684 49.9961C269.684 49.6638 269.572 49.4147 269.349 49.2334C269.125 49.0522 268.75 48.9163 268.215 48.8181L267.289 48.6445C266.682 48.5236 266.235 48.3424 265.94 48.0857C265.644 47.829 265.501 47.4816 265.501 47.0361C265.501 46.6812 265.597 46.3716 265.788 46.1073C265.98 45.843 266.251 45.6392 266.594 45.4881C266.938 45.3371 267.337 45.2692 267.792 45.2692C268.247 45.2692 268.67 45.3371 269.054 45.473C269.437 45.609 269.764 45.8128 270.036 46.0847L269.852 46.4018C269.549 46.1224 269.229 45.9261 268.91 45.8128C268.59 45.6996 268.215 45.6392 267.8 45.6392C267.225 45.6392 266.77 45.7675 266.427 46.0167C266.084 46.2735 265.916 46.6132 265.916 47.0436C265.916 47.391 266.028 47.6628 266.243 47.8516C266.459 48.0404 266.81 48.1839 267.297 48.282L268.231 48.4557C268.878 48.5765 269.349 48.7577 269.652 48.9918C269.948 49.2259 270.099 49.5581 270.099 49.9961C270.099 50.3208 270.012 50.6077 269.828 50.8569C269.644 51.1061 269.389 51.3024 269.046 51.4383C268.702 51.5743 268.303 51.6498 267.832 51.6498L267.824 51.6347Z" fill="#FAFDF9"/>
<path d="M274.634 51.5581V45.6683H272.183V45.321H277.476V45.6683H275.025V51.5581H274.634Z" fill="#FAFDF9"/>
<path d="M280.203 45.321H284.203V45.6683H280.594V48.2281H283.996V48.5755H280.594V51.2183H284.203V51.5657H280.203V45.321Z" fill="#FAFDF9"/>
<path d="M287.33 51.5581V45.321H287.673L290.515 51.4071H290.252L293.102 45.321H293.437V51.5581H293.07V45.6834H293.294L290.547 51.5581H290.22L287.457 45.6759H287.681V51.5581H287.314H287.33Z" fill="#FAFDF9"/>
</svg>
